<svg width="30" height="22" viewBox="0 0 30 22" fill="none" xmlns="http://www.w3.org/2000/svg">
<path d="M19.9554 10.4183C19.1633 10.4183 18.418 9.99977 18.0149 9.33013L15.001 4.37296L11.9919 9.33013C11.5841 10.0044 10.8388 10.4229 10.0467 10.4229C9.83574 10.4229 9.62481 10.395 9.42327 10.3346L3.00179 8.51169V16.7891C3.00179 17.4727 3.47052 18.068 4.1361 18.2307L14.2698 21.9128C14.7479 22.0291 15.2495 22.0291 15.7229 21.9128L25.866 18.2307C26.5316 18.0633 27.0003 17.4681 27.0003 16.7891V8.51169L20.5788 10.3299C20.3773 10.3904 20.1663 10.4183 19.9554 10.4183ZM29.9204 5.20071L27.5065 0.420242C27.3612 0.131926 27.0472 -0.0354832 26.7237 0.00636912L15.001 1.4898L19.2992 8.56284C19.4773 8.85581 19.8335 8.99531 20.1663 8.90231L29.4423 6.27491C29.9063 6.14006 30.1313 5.62853 29.9204 5.20071ZM2.49558 0.420242L0.0816664 5.20071C-0.133945 5.62853 0.095728 6.14006 0.555074 6.27026L9.83105 8.89766C10.1638 8.99066 10.5201 8.85116 10.6982 8.55819L15.001 1.4898L3.27365 0.00636912C2.95024 -0.0308329 2.64088 0.131926 2.49558 0.420242Z" fill="#F9C567"/>
</svg>
